<svg width="402" height="702" viewBox="0 0 402 702" fill="none" xmlns="http://www.w3.org/2000/svg">
<rect x="0.5" y="0.5" width="401" height="701" rx="15.5" stroke="#444444"/>
<mask id="path-2-inside-1_8_44" fill="white">
<path d="M1 16C1 7.71573 7.71573 1 16 1H386C394.284 1 401 7.71573 401 16V46H1V16Z"/>
</mask>
<g filter="url(#filter0_i_8_44)">
<path d="M1 16C1 7.71573 7.71573 1 16 1H386C394.284 1 401 7.71573 401 16V46H1V16Z" fill="#1E1E1E"/>
</g>
<path d="M1 1H401H1ZM401 47H1V45H401V47ZM1 46V1V46ZM401 1V46V1Z" fill="#444444" mask="url(#path-2-inside-1_8_44)"/>
<g filter="url(#filter1_d_8_44)">
<circle cx="24" cy="23" r="9" fill="#FF5F56"/>
<circle cx="24" cy="23" r="8.5" stroke="#E0443E"/>
</g>
<g filter="url(#filter2_d_8_44)">
<circle cx="56" cy="23" r="9" fill="#FFBD2E"/>
<circle cx="56" cy="23" r="8.5" stroke="#DEA123"/>
</g>
<g filter="url(#filter3_d_8_44)">
<circle cx="88" cy="23" r="9" fill="#27C93F"/>
<circle cx="88" cy="23" r="8.5" stroke="#1AAB29"/>
</g>
<path d="M121.014 26.856H123.159V22.436H120.884V21.292H123.159V20.083C123.159 19.5803 123.298 19.173 123.575 18.861C123.852 18.5403 124.286 18.38 124.875 18.38H127.137V19.524H124.576V21.292H127.137V22.436H124.576V26.856H126.838V28H121.014V26.856ZM131.838 28.156C131.327 28.156 130.867 28.0737 130.46 27.909C130.053 27.7443 129.71 27.5103 129.433 27.207C129.156 26.9037 128.943 26.5397 128.796 26.115C128.649 25.6817 128.575 25.1963 128.575 24.659C128.575 24.1217 128.649 23.6363 128.796 23.203C128.952 22.7697 129.164 22.4013 129.433 22.098C129.71 21.786 130.044 21.5477 130.434 21.383C130.824 21.2183 131.257 21.136 131.734 21.136C132.202 21.136 132.627 21.2183 133.008 21.383C133.389 21.539 133.714 21.7643 133.983 22.059C134.252 22.3537 134.455 22.7047 134.594 23.112C134.741 23.5193 134.815 23.97 134.815 24.464V24.997H130.005V25.218C130.005 25.7467 130.17 26.18 130.499 26.518C130.828 26.8473 131.283 27.012 131.864 27.012C132.297 27.012 132.666 26.921 132.969 26.739C133.281 26.5483 133.532 26.297 133.723 25.985L134.607 26.765C134.382 27.155 134.035 27.4843 133.567 27.753C133.108 28.0217 132.531 28.156 131.838 28.156ZM131.734 22.215C131.483 22.215 131.249 22.2583 131.032 22.345C130.824 22.4317 130.642 22.5573 130.486 22.722C130.339 22.878 130.222 23.0643 130.135 23.281C130.048 23.4977 130.005 23.736 130.005 23.996V24.087H133.372V23.957C133.372 23.4283 133.22 23.008 132.917 22.696C132.622 22.3753 132.228 22.215 131.734 22.215ZM136.578 26.856H138.359V22.436H136.578V21.292H139.776V23.073H139.854C139.915 22.839 140.001 22.6137 140.114 22.397C140.227 22.1803 140.37 21.994 140.543 21.838C140.716 21.6733 140.929 21.5433 141.18 21.448C141.431 21.344 141.726 21.292 142.064 21.292H142.87V22.644H141.544C141.024 22.644 140.599 22.8 140.27 23.112C139.941 23.4153 139.776 23.827 139.776 24.347V26.856H142.207V28H136.578V26.856ZM147.285 28.156C146.791 28.156 146.344 28.0737 145.946 27.909C145.556 27.7443 145.222 27.5103 144.945 27.207C144.676 26.9037 144.468 26.5353 144.321 26.102C144.173 25.6687 144.1 25.1833 144.1 24.646C144.1 24.1087 144.173 23.6233 144.321 23.19C144.468 22.7567 144.676 22.3883 144.945 22.085C145.222 21.7817 145.556 21.5477 145.946 21.383C146.344 21.2183 146.791 21.136 147.285 21.136C147.779 21.136 148.221 21.2183 148.611 21.383C149.009 21.5477 149.343 21.7817 149.612 22.085C149.889 22.3883 150.101 22.7567 150.249 23.19C150.396 23.6233 150.47 24.1087 150.47 24.646C150.47 25.1833 150.396 25.6687 150.249 26.102C150.101 26.5353 149.889 26.9037 149.612 27.207C149.343 27.5103 149.009 27.7443 148.611 27.909C148.221 28.0737 147.779 28.156 147.285 28.156ZM147.285 27.038C147.805 27.038 148.216 26.882 148.52 26.57C148.832 26.2493 148.988 25.777 148.988 25.153V24.139C148.988 23.515 148.832 23.047 148.52 22.735C148.216 22.4143 147.805 22.254 147.285 22.254C146.765 22.254 146.349 22.4143 146.037 22.735C145.733 23.047 145.582 23.515 145.582 24.139V25.153C145.582 25.777 145.733 26.2493 146.037 26.57C146.349 26.882 146.765 27.038 147.285 27.038ZM157.576 28C157.168 28 156.861 27.896 156.653 27.688C156.453 27.48 156.332 27.207 156.289 26.869H156.224C156.094 27.2763 155.855 27.5927 155.509 27.818C155.171 28.0433 154.737 28.156 154.209 28.156C153.524 28.156 152.978 27.9783 152.571 27.623C152.163 27.259 151.96 26.7607 151.96 26.128C151.96 25.478 152.198 24.984 152.675 24.646C153.16 24.2993 153.901 24.126 154.898 24.126H156.185V23.606C156.185 22.696 155.704 22.241 154.742 22.241C154.308 22.241 153.957 22.3277 153.689 22.501C153.42 22.6657 153.195 22.8867 153.013 23.164L152.168 22.475C152.358 22.111 152.679 21.799 153.13 21.539C153.58 21.2703 154.161 21.136 154.872 21.136C155.721 21.136 156.388 21.3397 156.874 21.747C157.359 22.1543 157.602 22.7437 157.602 23.515V26.882H158.447V28H157.576ZM154.612 27.116C155.071 27.116 155.448 27.012 155.743 26.804C156.037 26.596 156.185 26.3273 156.185 25.998V25.023H154.924C153.901 25.023 153.39 25.3307 153.39 25.946V26.206C153.39 26.5093 153.498 26.739 153.715 26.895C153.931 27.0423 154.23 27.116 154.612 27.116ZM160.067 28V21.292H161.484V22.436H161.549C161.618 22.2627 161.705 22.098 161.809 21.942C161.921 21.7773 162.056 21.6387 162.212 21.526C162.368 21.4047 162.55 21.3093 162.758 21.24C162.966 21.1707 163.208 21.136 163.486 21.136C164.162 21.136 164.708 21.357 165.124 21.799C165.54 22.241 165.748 22.8693 165.748 23.684V28H164.331V23.892C164.331 22.826 163.867 22.293 162.94 22.293C162.758 22.293 162.58 22.319 162.407 22.371C162.233 22.4143 162.077 22.4837 161.939 22.579C161.8 22.6743 161.687 22.7957 161.601 22.943C161.523 23.0903 161.484 23.2593 161.484 23.45V28H160.067ZM172.633 29.456H171.125C170.44 29.456 169.864 29.3433 169.396 29.118C168.928 28.9013 168.546 28.5677 168.252 28.117C167.966 27.675 167.758 27.116 167.628 26.44C167.506 25.764 167.446 24.9753 167.446 24.074C167.446 23.0773 167.515 22.241 167.654 21.565C167.801 20.889 168.009 20.343 168.278 19.927C168.555 19.511 168.893 19.2163 169.292 19.043C169.699 18.861 170.163 18.77 170.683 18.77C171.22 18.77 171.679 18.8523 172.061 19.017C172.451 19.1817 172.771 19.407 173.023 19.693C173.274 19.979 173.456 20.3213 173.569 20.72C173.69 21.11 173.751 21.5303 173.751 21.981V26.817H172.633V26.05H172.555C172.459 26.3187 172.312 26.5397 172.113 26.713C171.913 26.8777 171.636 26.96 171.281 26.96C170.769 26.96 170.362 26.739 170.059 26.297C169.755 25.8463 169.604 25.14 169.604 24.178C169.604 23.216 169.755 22.514 170.059 22.072C170.362 21.6213 170.769 21.396 171.281 21.396C171.636 21.396 171.913 21.4827 172.113 21.656C172.312 21.8293 172.459 22.046 172.555 22.306H172.633V21.981C172.633 20.5077 172 19.771 170.735 19.771C170.379 19.771 170.067 19.836 169.799 19.966C169.53 20.0873 169.309 20.291 169.136 20.577C168.962 20.863 168.832 21.2357 168.746 21.695C168.659 22.1457 168.616 22.696 168.616 23.346V25.023C168.616 25.5257 168.655 25.9893 168.733 26.414C168.811 26.83 168.945 27.1897 169.136 27.493C169.326 27.7963 169.582 28.0303 169.903 28.195C170.232 28.3683 170.639 28.455 171.125 28.455H172.633V29.456ZM171.723 26.05C172 26.05 172.221 25.972 172.386 25.816C172.55 25.66 172.633 25.4347 172.633 25.14V23.216C172.633 22.9213 172.55 22.696 172.386 22.54C172.221 22.384 172 22.306 171.723 22.306C171.419 22.306 171.185 22.4143 171.021 22.631C170.856 22.839 170.774 23.216 170.774 23.762V24.594C170.774 25.14 170.856 25.5213 171.021 25.738C171.185 25.946 171.419 26.05 171.723 26.05ZM175.591 21.292H177.008V22.436H177.086C177.286 22.0287 177.55 21.7123 177.879 21.487C178.209 21.253 178.62 21.136 179.114 21.136C179.903 21.136 180.531 21.4307 180.999 22.02C181.467 22.6093 181.701 23.4847 181.701 24.646C181.701 25.8073 181.467 26.6827 180.999 27.272C180.531 27.8613 179.903 28.156 179.114 28.156C178.62 28.156 178.209 28.0433 177.879 27.818C177.55 27.584 177.286 27.2633 177.086 26.856H177.008V30.6H175.591V21.292ZM178.529 26.999C179.067 26.999 179.478 26.8343 179.764 26.505C180.059 26.1757 180.206 25.738 180.206 25.192V24.1C180.206 23.554 180.059 23.1163 179.764 22.787C179.478 22.4577 179.067 22.293 178.529 22.293C178.321 22.293 178.126 22.319 177.944 22.371C177.762 22.423 177.602 22.501 177.463 22.605C177.325 22.709 177.212 22.839 177.125 22.995C177.047 23.1423 177.008 23.32 177.008 23.528V25.764C177.008 25.972 177.047 26.154 177.125 26.31C177.212 26.4573 177.325 26.583 177.463 26.687C177.602 26.791 177.762 26.869 177.944 26.921C178.126 26.973 178.321 26.999 178.529 26.999ZM186.259 28.156C185.765 28.156 185.319 28.0737 184.92 27.909C184.53 27.7443 184.197 27.5103 183.919 27.207C183.651 26.9037 183.443 26.5353 183.295 26.102C183.148 25.6687 183.074 25.1833 183.074 24.646C183.074 24.1087 183.148 23.6233 183.295 23.19C183.443 22.7567 183.651 22.3883 183.919 22.085C184.197 21.7817 184.53 21.5477 184.92 21.383C185.319 21.2183 185.765 21.136 186.259 21.136C186.753 21.136 187.195 21.2183 187.585 21.383C187.984 21.5477 188.318 21.7817 188.586 22.085C188.864 22.3883 189.076 22.7567 189.223 23.19C189.371 23.6233 189.444 24.1087 189.444 24.646C189.444 25.1833 189.371 25.6687 189.223 26.102C189.076 26.5353 188.864 26.9037 188.586 27.207C188.318 27.5103 187.984 27.7443 187.585 27.909C187.195 28.0737 186.753 28.156 186.259 28.156ZM186.259 27.038C186.779 27.038 187.191 26.882 187.494 26.57C187.806 26.2493 187.962 25.777 187.962 25.153V24.139C187.962 23.515 187.806 23.047 187.494 22.735C187.191 22.4143 186.779 22.254 186.259 22.254C185.739 22.254 185.323 22.4143 185.011 22.735C184.708 23.047 184.556 23.515 184.556 24.139V25.153C184.556 25.777 184.708 26.2493 185.011 26.57C185.323 26.882 185.739 27.038 186.259 27.038ZM191.142 26.856H192.923V22.436H191.142V21.292H194.34V23.073H194.418C194.479 22.839 194.566 22.6137 194.678 22.397C194.791 22.1803 194.934 21.994 195.107 21.838C195.281 21.6733 195.493 21.5433 195.744 21.448C195.996 21.344 196.29 21.292 196.628 21.292H197.434V22.644H196.108C195.588 22.644 195.164 22.8 194.834 23.112C194.505 23.4153 194.34 23.827 194.34 24.347V26.856H196.771V28H191.142V26.856ZM202.252 28C201.663 28 201.23 27.844 200.952 27.532C200.675 27.2113 200.536 26.7997 200.536 26.297V22.436H198.469V21.292H199.938C200.19 21.292 200.367 21.2443 200.471 21.149C200.575 21.045 200.627 20.863 200.627 20.603V18.926H201.953V21.292H204.813V22.436H201.953V26.856H204.813V28H202.252ZM206.758 26.856H208.903V22.436H206.628V21.292H208.903V20.083C208.903 19.5803 209.042 19.173 209.319 18.861C209.596 18.5403 210.03 18.38 210.619 18.38H212.881V19.524H210.32V21.292H212.881V22.436H210.32V26.856H212.582V28H206.758V26.856ZM217.439 28.156C216.945 28.156 216.499 28.0737 216.1 27.909C215.71 27.7443 215.376 27.5103 215.099 27.207C214.83 26.9037 214.622 26.5353 214.475 26.102C214.328 25.6687 214.254 25.1833 214.254 24.646C214.254 24.1087 214.328 23.6233 214.475 23.19C214.622 22.7567 214.83 22.3883 215.099 22.085C215.376 21.7817 215.71 21.5477 216.1 21.383C216.499 21.2183 216.945 21.136 217.439 21.136C217.933 21.136 218.375 21.2183 218.765 21.383C219.164 21.5477 219.497 21.7817 219.766 22.085C220.043 22.3883 220.256 22.7567 220.403 23.19C220.55 23.6233 220.624 24.1087 220.624 24.646C220.624 25.1833 220.55 25.6687 220.403 26.102C220.256 26.5353 220.043 26.9037 219.766 27.207C219.497 27.5103 219.164 27.7443 218.765 27.909C218.375 28.0737 217.933 28.156 217.439 28.156ZM217.439 27.038C217.959 27.038 218.371 26.882 218.674 26.57C218.986 26.2493 219.142 25.777 219.142 25.153V24.139C219.142 23.515 218.986 23.047 218.674 22.735C218.371 22.4143 217.959 22.254 217.439 22.254C216.919 22.254 216.503 22.4143 216.191 22.735C215.888 23.047 215.736 23.515 215.736 24.139V25.153C215.736 25.777 215.888 26.2493 216.191 26.57C216.503 26.882 216.919 27.038 217.439 27.038ZM222.309 26.856H224.532V19.524H222.309V18.38H225.949V26.856H228.172V28H222.309V26.856ZM233.445 20.07C233.081 20.07 232.825 19.9963 232.678 19.849C232.539 19.7017 232.47 19.5197 232.47 19.303V19.03C232.47 18.8133 232.539 18.6313 232.678 18.484C232.825 18.3367 233.077 18.263 233.432 18.263C233.796 18.263 234.047 18.3367 234.186 18.484C234.333 18.6313 234.407 18.8133 234.407 19.03V19.303C234.407 19.5197 234.333 19.7017 234.186 19.849C234.047 19.9963 233.8 20.07 233.445 20.07ZM230.442 26.856H232.73V22.436H230.442V21.292H234.147V26.856H236.292V28H230.442V26.856ZM240.824 28.156C240.33 28.156 239.883 28.0737 239.485 27.909C239.095 27.7443 238.761 27.5103 238.484 27.207C238.215 26.9037 238.007 26.5353 237.86 26.102C237.712 25.6687 237.639 25.1833 237.639 24.646C237.639 24.1087 237.712 23.6233 237.86 23.19C238.007 22.7567 238.215 22.3883 238.484 22.085C238.761 21.7817 239.095 21.5477 239.485 21.383C239.883 21.2183 240.33 21.136 240.824 21.136C241.318 21.136 241.76 21.2183 242.15 21.383C242.548 21.5477 242.882 21.7817 243.151 22.085C243.428 22.3883 243.64 22.7567 243.788 23.19C243.935 23.6233 244.009 24.1087 244.009 24.646C244.009 25.1833 243.935 25.6687 243.788 26.102C243.64 26.5353 243.428 26.9037 243.151 27.207C242.882 27.5103 242.548 27.7443 242.15 27.909C241.76 28.0737 241.318 28.156 240.824 28.156ZM240.824 27.038C241.344 27.038 241.755 26.882 242.059 26.57C242.371 26.2493 242.527 25.777 242.527 25.153V24.139C242.527 23.515 242.371 23.047 242.059 22.735C241.755 22.4143 241.344 22.254 240.824 22.254C240.304 22.254 239.888 22.4143 239.576 22.735C239.272 23.047 239.121 23.515 239.121 24.139V25.153C239.121 25.777 239.272 26.2493 239.576 26.57C239.888 26.882 240.304 27.038 240.824 27.038ZM248.619 28.13C248.203 28.13 247.908 28.0433 247.735 27.87C247.57 27.6967 247.488 27.4843 247.488 27.233V26.895C247.488 26.6437 247.57 26.4313 247.735 26.258C247.908 26.0847 248.203 25.998 248.619 25.998C249.035 25.998 249.325 26.0847 249.49 26.258C249.663 26.4313 249.75 26.6437 249.75 26.895V27.233C249.75 27.4843 249.663 27.6967 249.49 27.87C249.325 28.0433 249.035 28.13 248.619 28.13ZM248.619 23.294C248.203 23.294 247.908 23.2073 247.735 23.034C247.57 22.8607 247.488 22.6483 247.488 22.397V22.059C247.488 21.8077 247.57 21.5953 247.735 21.422C247.908 21.2487 248.203 21.162 248.619 21.162C249.035 21.162 249.325 21.2487 249.49 21.422C249.663 21.5953 249.75 21.8077 249.75 22.059V22.397C249.75 22.6483 249.663 22.8607 249.49 23.034C249.325 23.2073 249.035 23.294 248.619 23.294ZM257.688 25.569C257.367 25.569 257.081 25.4867 256.83 25.322C256.578 25.1487 256.344 24.9147 256.128 24.62C255.92 24.334 255.738 24.1087 255.582 23.944C255.426 23.7707 255.265 23.684 255.101 23.684C254.849 23.684 254.65 23.84 254.503 24.152C254.355 24.4553 254.234 24.88 254.139 25.426L253.099 25.218C253.237 24.3167 253.471 23.6407 253.801 23.19C254.139 22.7307 254.585 22.501 255.14 22.501C255.46 22.501 255.746 22.5877 255.998 22.761C256.249 22.9257 256.483 23.1553 256.7 23.45C256.908 23.736 257.09 23.9657 257.246 24.139C257.402 24.3037 257.562 24.386 257.727 24.386C257.978 24.386 258.177 24.2343 258.325 23.931C258.472 23.619 258.593 23.19 258.689 22.644L259.729 22.852C259.59 23.7533 259.352 24.4337 259.014 24.893C258.684 25.3437 258.242 25.569 257.688 25.569ZM263.793 28.143C263.099 28.091 262.514 27.9307 262.038 27.662C261.561 27.3933 261.171 27.051 260.868 26.635L261.804 25.738C262.098 26.0933 262.41 26.3707 262.74 26.57C263.069 26.7607 263.442 26.8777 263.858 26.921V23.944L263.559 23.892C263.125 23.814 262.757 23.697 262.454 23.541C262.15 23.385 261.903 23.1943 261.713 22.969C261.522 22.7437 261.383 22.4967 261.297 22.228C261.21 21.9507 261.167 21.656 261.167 21.344C261.167 20.6073 261.396 20.0223 261.856 19.589C262.315 19.147 262.961 18.8827 263.793 18.796V17.457H264.885V18.796C265.457 18.8567 265.951 18.9997 266.367 19.225C266.783 19.4503 267.142 19.758 267.446 20.148L266.497 21.006C266.289 20.7373 266.046 20.5207 265.769 20.356C265.5 20.1913 265.184 20.0873 264.82 20.044V22.8L265.171 22.852C265.604 22.93 265.972 23.047 266.276 23.203C266.579 23.359 266.826 23.5497 267.017 23.775C267.216 23.9917 267.359 24.2387 267.446 24.516C267.532 24.7933 267.576 25.088 267.576 25.4C267.576 26.1453 267.342 26.7563 266.874 27.233C266.414 27.7097 265.751 28 264.885 28.104V29.469H263.793V28.143ZM262.545 21.305C262.545 21.669 262.644 21.955 262.844 22.163C263.052 22.3623 263.39 22.514 263.858 22.618V20.018C262.982 20.122 262.545 20.551 262.545 21.305ZM266.198 25.465C266.198 25.075 266.089 24.7803 265.873 24.581C265.665 24.373 265.314 24.2213 264.82 24.126V26.908C265.27 26.8387 265.613 26.6827 265.847 26.44C266.081 26.1973 266.198 25.8723 266.198 25.465ZM274.5 28C274.092 28 273.785 27.896 273.577 27.688C273.377 27.48 273.256 27.207 273.213 26.869H273.148C273.018 27.2763 272.779 27.5927 272.433 27.818C272.095 28.0433 271.661 28.156 271.133 28.156C270.448 28.156 269.902 27.9783 269.495 27.623C269.087 27.259 268.884 26.7607 268.884 26.128C268.884 25.478 269.122 24.984 269.599 24.646C270.084 24.2993 270.825 24.126 271.822 24.126H273.109V23.606C273.109 22.696 272.628 22.241 271.666 22.241C271.232 22.241 270.881 22.3277 270.613 22.501C270.344 22.6657 270.119 22.8867 269.937 23.164L269.092 22.475C269.282 22.111 269.603 21.799 270.054 21.539C270.504 21.2703 271.085 21.136 271.796 21.136C272.645 21.136 273.312 21.3397 273.798 21.747C274.283 22.1543 274.526 22.7437 274.526 23.515V26.882H275.371V28H274.5ZM271.536 27.116C271.995 27.116 272.372 27.012 272.667 26.804C272.961 26.596 273.109 26.3273 273.109 25.998V25.023H271.848C270.825 25.023 270.314 25.3307 270.314 25.946V26.206C270.314 26.5093 270.422 26.739 270.639 26.895C270.855 27.0423 271.154 27.116 271.536 27.116ZM276.925 18.38H278.342V22.436H278.42C278.62 22.0287 278.884 21.7123 279.213 21.487C279.543 21.253 279.954 21.136 280.448 21.136C281.237 21.136 281.865 21.4307 282.333 22.02C282.801 22.6093 283.035 23.4847 283.035 24.646C283.035 25.8073 282.801 26.6827 282.333 27.272C281.865 27.8613 281.237 28.156 280.448 28.156C279.954 28.156 279.543 28.0433 279.213 27.818C278.884 27.584 278.62 27.2633 278.42 26.856H278.342V28H276.925V18.38ZM279.863 26.999C280.401 26.999 280.812 26.8343 281.098 26.505C281.393 26.1757 281.54 25.738 281.54 25.192V24.1C281.54 23.554 281.393 23.1163 281.098 22.787C280.812 22.4577 280.401 22.293 279.863 22.293C279.655 22.293 279.46 22.319 279.278 22.371C279.096 22.423 278.936 22.501 278.797 22.605C278.659 22.709 278.546 22.839 278.459 22.995C278.381 23.1423 278.342 23.32 278.342 23.528V25.764C278.342 25.972 278.381 26.154 278.459 26.31C278.546 26.4573 278.659 26.583 278.797 26.687C278.936 26.791 279.096 26.869 279.278 26.921C279.46 26.973 279.655 26.999 279.863 26.999ZM287.593 28.156C287.099 28.156 286.653 28.0737 286.254 27.909C285.864 27.7443 285.531 27.5103 285.253 27.207C284.985 26.9037 284.777 26.5353 284.629 26.102C284.482 25.6687 284.408 25.1833 284.408 24.646C284.408 24.1087 284.482 23.6233 284.629 23.19C284.777 22.7567 284.985 22.3883 285.253 22.085C285.531 21.7817 285.864 21.5477 286.254 21.383C286.653 21.2183 287.099 21.136 287.593 21.136C288.087 21.136 288.529 21.2183 288.919 21.383C289.318 21.5477 289.652 21.7817 289.92 22.085C290.198 22.3883 290.41 22.7567 290.557 23.19C290.705 23.6233 290.778 24.1087 290.778 24.646C290.778 25.1833 290.705 25.6687 290.557 26.102C290.41 26.5353 290.198 26.9037 289.92 27.207C289.652 27.5103 289.318 27.7443 288.919 27.909C288.529 28.0737 288.087 28.156 287.593 28.156ZM287.593 27.038C288.113 27.038 288.525 26.882 288.828 26.57C289.14 26.2493 289.296 25.777 289.296 25.153V24.139C289.296 23.515 289.14 23.047 288.828 22.735C288.525 22.4143 288.113 22.254 287.593 22.254C287.073 22.254 286.657 22.4143 286.345 22.735C286.042 23.047 285.89 23.515 285.89 24.139V25.153C285.89 25.777 286.042 26.2493 286.345 26.57C286.657 26.882 287.073 27.038 287.593 27.038ZM296.779 26.856H296.714C296.645 27.0293 296.554 27.1983 296.441 27.363C296.337 27.519 296.207 27.6577 296.051 27.779C295.895 27.8917 295.713 27.9827 295.505 28.052C295.297 28.1213 295.055 28.156 294.777 28.156C294.101 28.156 293.555 27.935 293.139 27.493C292.723 27.051 292.515 26.4227 292.515 25.608V21.292H293.932V25.4C293.932 26.466 294.396 26.999 295.323 26.999C295.505 26.999 295.683 26.9773 295.856 26.934C296.03 26.882 296.186 26.8083 296.324 26.713C296.463 26.6177 296.571 26.5007 296.649 26.362C296.736 26.2147 296.779 26.0413 296.779 25.842V21.292H298.196V28H296.779V26.856ZM303.586 28C302.997 28 302.564 27.844 302.286 27.532C302.009 27.2113 301.87 26.7997 301.87 26.297V22.436H299.803V21.292H301.272C301.524 21.292 301.701 21.2443 301.805 21.149C301.909 21.045 301.961 20.863 301.961 20.603V18.926H303.287V21.292H306.147V22.436H303.287V26.856H306.147V28H303.586Z" fill="#E5E5E5"/>
<defs>
<filter id="filter0_i_8_44" x="1" y="1" width="400" height="45" filterUnits="userSpaceOnUse" color-interpolation-filters="sRGB">
<feFlood flood-opacity="0" result="BackgroundImageFix"/>
<feBlend mode="normal" in="SourceGraphic" in2="BackgroundImageFix" result="shape"/>
<feColorMatrix in="SourceAlpha" type="matrix" values="0 0 0 0 0 0 0 0 0 0 0 0 0 0 0 0 0 0 127 0" result="hardAlpha"/>
<feMorphology radius="2" operator="erode" in="SourceAlpha" result="effect1_innerShadow_8_44"/>
<feOffset/>
<feGaussianBlur stdDeviation="3"/>
<feComposite in2="hardAlpha" operator="arithmetic" k2="-1" k3="1"/>
<feColorMatrix type="matrix" values="0 0 0 0 0 0 0 0 0 0 0 0 0 0 0 0 0 0 0.25 0"/>
<feBlend mode="normal" in2="shape" result="effect1_innerShadow_8_44"/>
</filter>
<filter id="filter1_d_8_44" x="11" y="10" width="26" height="26" filterUnits="userSpaceOnUse" color-interpolation-filters="sRGB">
<feFlood flood-opacity="0" result="BackgroundImageFix"/>
<feColorMatrix in="SourceAlpha" type="matrix" values="0 0 0 0 0 0 0 0 0 0 0 0 0 0 0 0 0 0 127 0" result="hardAlpha"/>
<feMorphology radius="1" operator="dilate" in="SourceAlpha" result="effect1_dropShadow_8_44"/>
<feOffset/>
<feGaussianBlur stdDeviation="1.5"/>
<feComposite in2="hardAlpha" operator="out"/>
<feColorMatrix type="matrix" values="0 0 0 0 0 0 0 0 0 0 0 0 0 0 0 0 0 0 0.25 0"/>
<feBlend mode="normal" in2="BackgroundImageFix" result="effect1_dropShadow_8_44"/>
<feBlend mode="normal" in="SourceGraphic" in2="effect1_dropShadow_8_44" result="shape"/>
</filter>
<filter id="filter2_d_8_44" x="43" y="10" width="26" height="26" filterUnits="userSpaceOnUse" color-interpolation-filters="sRGB">
<feFlood flood-opacity="0" result="BackgroundImageFix"/>
<feColorMatrix in="SourceAlpha" type="matrix" values="0 0 0 0 0 0 0 0 0 0 0 0 0 0 0 0 0 0 127 0" result="hardAlpha"/>
<feMorphology radius="1" operator="dilate" in="SourceAlpha" result="effect1_dropShadow_8_44"/>
<feOffset/>
<feGaussianBlur stdDeviation="1.5"/>
<feComposite in2="hardAlpha" operator="out"/>
<feColorMatrix type="matrix" values="0 0 0 0 0 0 0 0 0 0 0 0 0 0 0 0 0 0 0.25 0"/>
<feBlend mode="normal" in2="BackgroundImageFix" result="effect1_dropShadow_8_44"/>
<feBlend mode="normal" in="SourceGraphic" in2="effect1_dropShadow_8_44" result="shape"/>
</filter>
<filter id="filter3_d_8_44" x="75" y="10" width="26" height="26" filterUnits="userSpaceOnUse" color-interpolation-filters="sRGB">
<feFlood flood-opacity="0" result="BackgroundImageFix"/>
<feColorMatrix in="SourceAlpha" type="matrix" values="0 0 0 0 0 0 0 0 0 0 0 0 0 0 0 0 0 0 127 0" result="hardAlpha"/>
<feMorphology radius="1" operator="dilate" in="SourceAlpha" result="effect1_dropShadow_8_44"/>
<feOffset/>
<feGaussianBlur stdDeviation="1.5"/>
<feComposite in2="hardAlpha" operator="out"/>
<feColorMatrix type="matrix" values="0 0 0 0 0 0 0 0 0 0 0 0 0 0 0 0 0 0 0.25 0"/>
<feBlend mode="normal" in2="BackgroundImageFix" result="effect1_dropShadow_8_44"/>
<feBlend mode="normal" in="SourceGraphic" in2="effect1_dropShadow_8_44" result="shape"/>
</filter>
</defs>
</svg>
